# xmcd CD database file
#
# Track frame offsets:
#	150
#	12272
#	24257
#	39145
#	47522
#	58060
#	71837
#	83457
#	96260
#	108600
#	120012
#	132280
#	143185
#	155922
#	171632
#	190842
#	202667
#	216742
#	232205
#	248584
#	260207
#	273857
#	290270
#	300810
#
# Disc length: 4169 seconds
#
# Revision: 0
# Processed by: cddbd v1.5PL3 Copyright (c) Steve Scherf et al.
# Submitted via: CDex 1.51
#
DISCID=52104718
DTITLE=Johnny Rivers - In action!/Changes
DYEAR=1998
DGENRE=Blues
TTITLE0=Mountain of love
TTITLE1=Promise land
TTITLE2=I shoud have known better
TTITLE3=I'm in love again
TTITLE4=Rhythm of the rain
TTITLE5=He don't love you, like I love you
TTITLE6=Cupid
TTITLE7=Oh, pretty woman
TTITLE8=It's all over now
TTITLE9=What am I doin' here with you
TTITLE10=Moody river
TTITLE11=Keep a-knockin'
TTITLE12=By the time I get to Phoenix
TTITLE13=A taste of honey
TTITLE14=Days of wine and roses
TTITLE15=California dreamin'
TTITLE16=Do you want to dance?
TTITLE17=Cast your fate to the wind
TTITLE18=Poor side of town
TTITLE19=If I were a carpenter
TTITLE20=Softly as I leave you
TTITLE21=The shadow of your smile
TTITLE22=Strangers in the night
TTITLE23=Getting ready for tomorrow
EXTD=YEAR: 1998
EXTT0=
EXTT1=
EXTT2=
EXTT3=
EXTT4=
EXTT5=
EXTT6=
EXTT7=
EXTT8=
EXTT9=
EXTT10=
EXTT11=
EXTT12=
EXTT13=
EXTT14=
EXTT15=
EXTT16=
EXTT17=
EXTT18=
EXTT19=
EXTT20=
EXTT21=
EXTT22=
EXTT23=
PLAYORDER=
